HIERARCHY
ROOT SpineBase
{
  OFFSET 0.000000 0.000000 0.000000
  CHANNELS 6 Xposition Yposition Zposition Zrotation Xrotation Yrotation
  JOINT SpineMid
  {
    OFFSET -0.000000 31.956081 0.000000
    CHANNELS 3 Zrotation Xrotation Yrotation
    JOINT SpineShoulder
    {
      OFFSET 0.158309 23.915451 -0.732778
      CHANNELS 3 Zrotation Xrotation Yrotation
      JOINT Neck
      {
        OFFSET 0.051933 7.919433 -0.531472
        CHANNELS 3 Zrotation Xrotation Yrotation
        JOINT Head
        {
          OFFSET 3.281316 12.925388 4.756960
          CHANNELS 3 Zrotation Xrotation Yrotation
          End Site
          {
            OFFSET 0 0 0
          }
        }
      }
      JOINT ShoulderLeft
      {
        OFFSET -9.415085 -3.134923 -11.878477
        CHANNELS 3 Zrotation Xrotation Yrotation
        JOINT ElbowLeft
        {
          OFFSET -5.551213 -22.269110 -7.544596
          CHANNELS 3 Zrotation Xrotation Yrotation
          JOINT WristLeft
          {
            OFFSET 24.280342 -10.197768 0.959650
            CHANNELS 3 Zrotation Xrotation Yrotation
            JOINT HandLeft
            {
              OFFSET 5.162312 0.518832 1.306321
              CHANNELS 3 Zrotation Xrotation Yrotation
              JOINT HandTipLeft
              {
                OFFSET 7.076461 -0.034787 2.297307
                CHANNELS 3 Zrotation Xrotation Yrotation
                End Site
                {
                  OFFSET 0 0 0
                }
              }
              JOINT ThumbLeft
              {
                OFFSET 1.316956 -0.877796 -4.805077
                CHANNELS 3 Zrotation Xrotation Yrotation
                End Site
                {
                  OFFSET 0 0 0
                }
              }
            }
          }
        }
      }
      JOINT ShoulderRight
      {
        OFFSET 12.163964 -3.827507 11.953890
        CHANNELS 3 Zrotation Xrotation Yrotation
        JOINT ElbowRight
        {
          OFFSET 4.351649 -20.880994 7.366841
          CHANNELS 3 Zrotation Xrotation Yrotation
          JOINT WristRight
          {
            OFFSET 2.916198 -7.683934 -19.326098
            CHANNELS 3 Zrotation Xrotation Yrotation
            JOINT HandRight
            {
              OFFSET -0.957414 -1.491027 -11.152657
              CHANNELS 3 Zrotation Xrotation Yrotation
              JOINT HandTipRight
              {
                OFFSET 0.890800 -2.674136 -6.580903
                CHANNELS 3 Zrotation Xrotation Yrotation
                End Site
                {
                  OFFSET 0 0 0
                }
              }
              JOINT ThumbRight
              {
                OFFSET -4.747617 3.535259 4.546297
                CHANNELS 3 Zrotation Xrotation Yrotation
                End Site
                {
                  OFFSET 0 0 0
                }
              }
            }
          }
        }
      }
    }
  }
  JOINT HipLeft
  {
    OFFSET -4.541335 1.993481 -8.428774
    CHANNELS 3 Zrotation Xrotation Yrotation
    JOINT KneeLeft
    {
      OFFSET -6.341135 -34.367097 -1.009766
      CHANNELS 3 Zrotation Xrotation Yrotation
      JOINT AnkleLeft
      {
        OFFSET -6.411974 -38.745904 6.426059
        CHANNELS 3 Zrotation Xrotation Yrotation
        JOINT FootLeft
        {
          OFFSET 1.869546 -8.018453 -4.993885
          CHANNELS 3 Zrotation Xrotation Yrotation
          End Site
          {
            OFFSET 0 0 0
          }
        }
      }
    }
  }
  JOINT HipRight
  {
    OFFSET 5.340754 -0.081028 1.272736
    CHANNELS 3 Zrotation Xrotation Yrotation
    JOINT KneeRight
    {
      OFFSET -0.821092 -37.620386 4.106626
      CHANNELS 3 Zrotation Xrotation Yrotation
      JOINT AnkleRight
      {
        OFFSET -5.436407 -37.161147 10.011908
        CHANNELS 3 Zrotation Xrotation Yrotation
        JOINT FootRight
        {
          OFFSET 2.469561 -8.011579 -4.237576
          CHANNELS 3 Zrotation Xrotation Yrotation
          End Site
          {
            OFFSET 0 0 0
          }
        }
      }
    }
  }
}
MOTION
Frames: 10
Frame Time: 0.033333
-37.606686 82.953634 340.513423 0.000000 0.000000 -44.471697 -0.000000 0.000000 44.471697 -0.000000 0.000000 0.000000 -0.000000 0.000000 0.000000 0.000000 0.000000 0.000000 -0.000000 0.000000 0.000000 -0.000000 0.000000 0.000000 -0.000000 0.000000 0.000000 -0.000000 0.000000 0.000000 0.000000 0.000000 0.000000 0.000000 0.000000 0.000000 -0.000000 0.000000 0.000000 -0.000000 0.000000 0.000000 -0.000000 0.000000 0.000000 -0.000000 0.000000 0.000000 0.000000 0.000000 0.000000 0.000000 0.000000 0.000000 -0.000000 0.000000 44.471697 -0.000000 0.000000 0.000000 -0.000000 0.000000 0.000000 0.000000 0.000000 0.000000 -0.000000 0.000000 44.471697 -0.000000 0.000000 0.000000 -0.000000 0.000000 0.000000 0.000000 0.000000 0.000000
-37.352449 82.996992 340.624275 0.115284 0.196824 -44.619715 0.056191 -0.221072 44.619625 -0.000000 0.000000 0.000000 -0.000000 0.000000 0.000000 0.000000 0.000000 0.000000 -0.000000 0.000000 0.000000 -0.000000 0.000000 0.000000 -1.966537 0.066385 3.660557 -2.054787 1.290817 -0.522376 0.000000 0.000000 0.000000 0.000000 0.000000 0.000000 -0.331093 1.284751 0.155366 -0.043326 -0.187576 1.173636 0.799611 -3.348735 -4.033648 -2.079051 0.207129 6.134729 0.000000 0.000000 0.000000 0.000000 0.000000 0.000000 0.056191 -0.221072 44.619625 -0.000000 0.000000 0.000000 -0.380360 0.754480 0.413928 0.000000 0.000000 0.000000 0.056191 -0.221072 44.619625 -0.000000 0.000000 0.000000 0.430077 1.789013 0.314349 0.000000 0.000000 0.000000
-37.110064 83.035213 340.728409 0.212439 0.384579 -44.727693 0.119713 -0.422729 44.727422 -0.000000 0.000000 0.000000 -0.000000 0.000000 0.000000 0.000000 0.000000 0.000000 1.037184 -0.083677 -0.330610 -0.228340 0.490159 1.358366 -4.640806 -0.240585 5.540544 -4.069335 2.614217 -0.517761 0.000000 0.000000 0.000000 0.000000 0.000000 0.000000 -0.592901 2.349392 0.295120 -0.073627 -0.428455 2.020047 1.241748 -5.881271 -7.042099 -3.946912 -0.350386 12.034794 0.000000 0.000000 0.000000 0.000000 0.000000 0.000000 0.119713 -0.422729 44.727422 -0.000000 0.000000 0.000000 -0.680522 1.412300 0.756751 0.000000 0.000000 0.000000 0.119713 -0.422729 44.727422 -0.000000 0.000000 0.000000 0.768370 3.174985 0.542149 0.000000 0.000000 0.000000
-36.879530 83.068298 340.825827 0.291551 0.563376 -44.795649 0.190052 -0.605205 44.795220 -0.000000 0.000000 0.000000 0.058115 0.841606 -0.234869 0.000000 0.000000 0.000000 1.440008 -0.108986 -0.460941 -0.242889 0.714110 1.976431 -6.734203 -0.325347 7.125724 -5.827256 3.770444 -0.190603 0.000000 0.000000 0.000000 0.000000 0.000000 0.000000 -0.782400 3.188434 0.415053 -0.094869 -0.673724 2.589609 1.472838 -7.686868 -9.184242 -5.520507 -1.289045 17.478691 0.000000 0.000000 0.000000 0.000000 0.000000 0.000000 0.190052 -0.605205 44.795220 -0.000000 0.000000 0.000000 -0.899501 1.976268 1.027374 0.000000 0.000000 0.000000 0.190052 -0.605205 44.795220 -0.000000 0.000000 0.000000 1.024584 4.176982 0.693510 0.000000 0.000000 0.000000
-36.660848 83.096245 340.916529 0.352687 0.733321 -44.823583 -0.052763 0.118117 44.827858 -0.398630 -0.854248 -0.009529 0.071167 0.927224 -0.261426 0.000000 0.000000 0.000000 1.764907 -0.122536 -0.567933 -0.193330 0.921365 2.548626 -8.617120 -0.327719 7.835599 -7.100017 4.586711 0.206657 0.000000 0.000000 0.000000 0.000000 0.000000 0.000000 -0.897194 3.798167 0.511868 -0.111087 -0.889472 2.917657 1.582016 -8.840766 -10.565970 -6.765071 -2.160850 22.102875 0.000000 0.000000 0.000000 0.000000 0.000000 0.000000 -0.627521 -1.093275 44.760200 0.863402 -0.399301 0.051393 -1.036560 2.448841 1.225019 0.000000 0.000000 0.000000 0.266786 -0.768746 44.823116 -0.900385 0.158504 -0.264322 2.083900 4.661318 1.046384 0.000000 0.000000 0.000000
-36.454017 83.119056 341.000513 0.395895 0.894513 -44.811473 -0.052263 0.132011 44.815490 -0.211702 -0.157727 0.001810 -0.159308 0.049213 -0.273348 0.000000 0.000000 0.000000 1.771689 -0.991057 -0.633434 -0.081740 1.109869 3.071437 -10.259021 -0.214352 7.658877 -7.691488 4.950538 0.453999 0.000000 0.000000 0.000000 0.000000 0.000000 0.000000 -1.174036 3.309367 0.556808 -0.125514 -1.053598 3.027305 1.619609 -9.396940 -11.254710 -7.692678 -2.552813 25.484020 0.000000 0.000000 0.000000 0.000000 0.000000 0.000000 -0.726497 -1.300413 44.731680 1.036473 -0.482569 0.063064 -1.091164 2.832042 1.349172 0.000000 0.000000 0.000000 0.349580 -0.913607 44.811170 -1.065351 0.214327 -0.316124 2.353011 4.883159 1.118569 0.000000 0.000000 0.000000
-36.245438 83.143912 341.090912 0.416421 1.027278 -44.815786 -0.028210 0.111053 44.819336 -0.238208 -0.186663 0.000667 -0.236623 -0.939216 -0.011653 0.000000 0.000000 0.000000 1.926407 -1.082594 -0.674046 -0.100512 1.204459 3.292858 -10.859188 -0.182396 7.633766 -7.339712 5.278033 -2.115641 0.000000 0.000000 0.000000 0.000000 0.000000 0.000000 -1.079878 3.372169 0.616493 -0.195542 -1.257745 2.885753 1.581695 -8.988833 -10.641822 -7.598092 -2.205961 24.585733 0.000000 0.000000 0.000000 0.000000 0.000000 0.000000 -0.835599 -1.493470 44.721721 1.229581 -0.554845 0.072355 -0.748706 3.613535 1.308933 0.000000 0.000000 0.000000 0.428673 -1.022226 44.815876 -1.151009 0.259968 -0.345237 2.625782 4.747203 1.018349 0.000000 0.000000 0.000000
-36.064534 83.154499 341.161887 0.406745 1.175620 -44.755348 -0.024505 0.117246 44.757524 -0.250363 -0.197927 -0.000619 -0.221653 -1.078159 -0.009884 0.000000 0.000000 0.000000 1.997652 -1.193124 -0.692686 0.305028 1.383785 3.786585 -13.030395 0.610128 4.543065 -6.001019 3.860732 1.000618 0.000000 0.000000 0.000000 0.000000 0.000000 0.000000 -0.834439 2.919125 0.625308 -0.341959 -1.062026 2.638992 1.600633 -9.089530 -11.226433 -8.155215 -1.080402 26.425154 0.000000 0.000000 0.000000 0.000000 0.000000 0.000000 -0.877190 -1.657165 44.649290 1.383671 -0.613989 0.080238 -0.483656 3.950928 1.214509 0.000000 0.000000 0.000000 -0.382732 -1.115143 44.653191 -0.629235 -0.300359 -0.317902 2.206276 3.706100 1.101424 0.000000 0.000000 0.000000
-35.924915 83.166118 341.201722 0.375775 1.316971 -44.600355 -0.007917 0.122910 44.601319 -0.252655 -0.210027 -0.001580 -0.203873 -1.199986 -0.007942 0.000000 0.000000 0.000000 2.011985 -1.264149 -0.698461 0.705368 1.598943 4.385366 -14.822713 1.591965 0.507403 -0.638815 1.488145 0.491510 0.000000 0.000000 0.000000 0.000000 0.000000 0.000000 -0.546918 2.294748 0.609642 -0.445982 -0.620728 2.251970 1.394234 -7.489687 -9.109111 -7.929294 -0.837874 24.277909 0.000000 0.000000 0.000000 0.000000 0.000000 0.000000 -0.825559 -1.752451 44.487681 1.443341 -0.646146 0.085164 -0.496644 3.774703 1.182963 0.000000 0.000000 0.000000 -0.361307 -1.251856 44.483237 -0.624537 -0.257190 -0.343734 2.106479 2.939154 1.051585 0.000000 0.000000 0.000000
-35.764835 83.163757 341.256239 0.395790 1.438385 -44.358663 0.017201 0.118334 44.359656 -0.252945 -0.225582 -0.000368 -0.238011 -1.285340 -0.010206 0.000000 0.000000 0.000000 2.004742 -1.266859 -0.728146 1.248408 1.708949 4.826266 -15.536774 1.865436 -1.147016 -0.517128 1.262713 0.927008 0.000000 0.000000 0.000000 0.000000 0.000000 0.000000 -0.577466 2.155471 0.596420 -0.214133 -0.868056 1.610633 1.226087 -6.588280 -8.146240 -8.900208 2.045823 25.740702 0.000000 0.000000 0.000000 0.000000 0.000000 0.000000 -0.940501 -1.845906 44.219450 1.568475 -0.772505 0.107318 -0.604280 3.513288 1.192918 0.000000 0.000000 0.000000 -0.454704 -1.438010 44.215766 -0.523823 -0.277413 -0.347663 2.449050 2.282764 0.747564 0.000000 0.000000 0.000000
